<svg width="413" height="266" viewBox="0 0 413 266" fill="none" xmlns="http://www.w3.org/2000/svg">
<g clip-path="url(#clip0_47_46)">
<mask id="mask0_47_46" style="mask-type:alpha" maskUnits="userSpaceOnUse" x="0" y="9" width="412" height="256">
<path d="M0 9H412V201L0 265V9Z" fill="#D9D9D9"/>
</mask>
<g mask="url(#mask0_47_46)">
<path d="M408.643 209.191C404.342 199.745 399.745 190.911 393.858 182.341C389.879 176.54 382.508 169.916 382.029 162.824C380.11 171.475 373.997 177.303 366.894 185.239C358.711 161.216 361.706 134.436 344.393 113.575C334.656 101.848 318.527 92.7566 311.838 79.1108C307.392 70.0352 306.462 58.7605 302.698 49.3247C295.45 71.8686 292.483 89.3586 276.627 108.144C261.374 126.242 263.186 153.716 246.271 170.512C227.647 188.986 237.921 135 237.916 127.263C237.916 116.51 237.432 112.585 234.502 102.902C232.383 95.9126 233.426 78.1699 240.954 63.1155C234.313 66.492 214.393 96.0631 207.807 101.827C202.167 94.7835 202.909 83.3099 201.382 74.5192C199.516 63.7984 195.511 52.8356 191.435 42.7384C187.064 31.9046 178.768 18.7481 178.731 6.80676C177.359 37.8941 138.137 60.1799 120.465 81.5249C109.771 94.4287 101.265 110.279 97.8831 126.688C95.8776 136.398 96.0712 151.001 89.7537 158.571C87.3665 147.533 89.1569 135.99 84.4578 125.322C80.5813 116.499 71.5809 111.51 70.1292 101.988C74.6079 131.468 27.1973 156.829 13.4925 178.034C2.55116 194.97 -6.97611 247.629 7.8202 265.14H404.611C408.977 245.698 417.257 228.133 408.643 209.191Z" fill="#FF9B50"/>
<path d="M408.643 209.191C404.342 199.745 399.745 190.911 393.858 182.341C389.879 176.54 382.508 169.916 382.029 162.824C380.11 171.475 373.997 177.303 366.894 185.239C358.711 161.216 361.706 134.436 344.393 113.575C334.656 101.848 318.527 92.7566 311.838 79.1108C307.392 70.0352 306.462 58.7605 302.698 49.3247C295.45 71.8686 292.483 89.3586 276.627 108.144C261.374 126.242 263.186 153.716 246.271 170.512C227.647 188.986 237.921 135 237.916 127.263C237.916 116.51 237.432 112.585 234.502 102.902C232.383 95.9126 233.426 78.1699 240.954 63.1155C234.313 66.492 214.393 96.0631 207.807 101.827C202.167 94.7835 202.909 83.3099 201.382 74.5192C199.516 63.7984 195.511 52.8356 191.435 42.7384C187.064 31.9046 178.768 18.7481 178.731 6.80676C177.359 37.8941 138.137 60.1799 120.459 81.5249C109.771 94.4287 101.265 110.279 97.8777 126.688C95.8776 136.398 96.0712 151.001 89.7537 158.571C87.3665 147.533 89.1569 135.99 84.4578 125.322C80.5813 116.499 71.5809 111.51 70.1292 101.988C74.6079 131.468 27.1973 156.829 13.4925 178.034C2.55116 194.97 -6.97611 247.629 7.8202 265.14H29.6544C29.2404 253.489 32.4986 240.945 35.6224 230.859C41.5366 211.74 58.8277 197.481 63.5806 178.502C63.9677 185.669 69.8604 191.943 72.425 198.551C75.5703 206.675 74.3445 215.063 76.366 222.961C82.3663 210.299 86.5815 202.562 97.6895 192.992C107.502 184.551 115.239 174.217 119.733 162.044C124.863 148.167 127.648 134.753 135.562 122.258C143.476 109.763 154.273 101.106 163.44 90.6812C164.061 89.116 165.174 87.7952 166.612 86.9176C165.585 88.208 164.52 89.4607 163.44 90.6812C159.353 100.687 172.166 121.398 173.257 129.79C174.295 137.764 173.913 148.216 172.225 157.55C181.032 143.216 200.581 140.345 212.549 128.64C213.693 125.723 215.646 123.194 218.178 121.349C216.667 124.04 214.77 126.496 212.549 128.64C207.259 142.183 219.415 162.663 224.528 173.642C231.604 188.836 238.545 218.439 228.985 233.66C241.115 213.552 261.492 202.96 277.245 185.465C292.466 168.561 292.106 139.086 310.392 124.548C297.542 143.812 328 163.061 334.769 179.249C341.221 194.723 347.103 223.622 338.726 239.096C343.796 228.526 366.76 222.149 371.491 214.219C371.661 213.311 371.948 212.429 372.346 211.595C372.283 212.527 371.99 213.429 371.491 214.219C370.367 219.928 373.056 226.983 373.185 233.037C373.378 241.591 371.362 248.844 369.905 256.64C369.362 259.514 368.669 262.359 367.83 265.162H404.557C408.977 245.698 417.257 228.133 408.643 209.191Z" fill="#FF673E"/>
<path d="M325.043 243.327C320.322 242.886 317.306 241.671 316.44 242.252C315.193 233.187 314.467 224.961 314.94 215.509C315.36 207.095 315.177 193.207 319.478 183.169C313.327 187.438 311.161 195.911 309.085 200.734C306.79 206.111 305.053 206.03 301.182 210.105C294.88 216.735 290.499 238.375 278.783 234.698C290.445 220.805 298.676 185.68 293.671 192.847C289.305 199.094 269.288 216.746 264.906 220.101C258.637 224.902 246.97 235.978 239.932 238.112C232.614 240.338 228.975 234.305 223.539 233.999C216.909 233.628 214.399 237.074 208.861 239.026C214.538 215.697 179.494 192.051 192.43 171.819C188.613 176.545 182.79 179.416 178.86 184.346C175.209 188.911 174.494 194.626 171.381 199.401C167.655 205.116 162.321 208.498 159.015 214.455C156.326 219.294 155.396 225.208 153.074 230.257C153.332 222.117 156.063 210.901 152.853 202.627C148.805 192.148 142.638 191.153 143.208 178.217C135.879 195.422 128.637 211.353 109.814 217.649C100.383 220.805 92.942 222.73 85.8933 230.343C80.8877 235.752 76.4574 246.672 68.0377 246.548C67.1022 240.677 64.0053 235.542 64.6505 229.343C59.5428 240.397 57.1609 251.236 61.3278 265.135H327.721C338.28 258.059 338.769 253.306 342.942 241.478C335.06 249.301 333.452 243.408 325.043 243.327Z" fill="#FFCC4D"/>
</g>
</g>
<defs>
<clipPath id="clip0_47_46">
<rect width="412.184" height="265.14" fill="white" transform="translate(0.223145)"/>
</clipPath>
</defs>
</svg>
