<svg width="164" height="68" viewBox="0 0 164 68" fill="none" xmlns="http://www.w3.org/2000/svg">
<g clip-path="url(#clip0_46_9)">
<path d="M101.41 62.9042C111.626 59.9555 120.264 54.2581 130.293 51.1266C128.099 50.2828 125.868 49.8391 123.537 49.14C132.316 44.6272 144.703 45.4506 153.319 39.3663C160.573 34.2665 156.561 37.467 163.422 31.6105C155.421 31.0528 149.697 28.0649 141.652 24.9246C124.709 18.3013 126.466 16.437 119.245 12.5714C105.766 5.37114 90.913 2.09181 75.685 1.49693C56.3574 0.737992 9.61962 0.165294 2.26555 24.0419C2.26555 24.0419 -4.56904 37.4958 7.83078 49.2655C15.5653 56.6081 32.7218 67.5914 68.354 66.5172C78.9935 66.1884 91.1643 65.8575 101.41 62.9042Z" fill="#FF673E"/>
<path d="M81.1813 40.9282C78.3072 39.8446 75.1541 38.6508 72.6497 36.494C90.111 36.6996 105.753 29.8894 122.45 29.5701L121.394 29.5831C111.354 27.3088 100.602 29.4185 90.8129 26.7415C80.8595 24.0287 71.7747 18.0616 61.3703 16.3008C48.7442 14.1636 8.19315 11.0662 11.2844 32.8496L10.6884 36.0373C19.7562 64.1837 62.7088 43.6757 81.1813 40.9282Z" fill="#FF9B50"/>
<path d="M62.6082 29.0242C54.4098 29.1 7.39742 17.5043 7.45345 31.6136C3.97388 46.6038 56.3119 29.1438 62.6082 29.0242Z" fill="#FFCC4D"/>
</g>
<defs>
<clipPath id="clip0_46_9">
<rect width="65.3667" height="163.057" fill="white" transform="translate(163.045) rotate(89.2942)"/>
</clipPath>
</defs>
</svg>
