<svg width="151" height="140" viewBox="0 0 151 140" fill="none" xmlns="http://www.w3.org/2000/svg">
<path fill-rule="evenodd" clip-rule="evenodd" d="M123.726 0.735958H150.311V27.3206H123.726V0.735958ZM123.726 27.3206H97.1414V40.6129V53.9052V73.4006H89.166V115.936H110.434V139.521H137.018V112.936H115.751V73.4006H107.775V53.9052H123.726V27.3206ZM27.1351 128.342V115.936H0.550598V89.3514H27.1351V62.7667H44.8582V128.342H27.1351ZM71 89.3514H44.8583V115.936H71V132H89V89H71V89.3514ZM63 116H45V132H63V116Z" fill="#D6D9A9"/>
<path fill-rule="evenodd" clip-rule="evenodd" d="M127.158 73.6996H147.85V93.3017H132.603V93.3017L132.603 112.904H111.912L111.912 93.3017V73.6996H127.158V73.6996Z" fill="#75695C"/>
</svg>
