<svg width="741" height="253" viewBox="0 0 741 253" fill="none" xmlns="http://www.w3.org/2000/svg">
<path d="M88.6684 163.131L104.56 231.03L139.232 252.7H406.495L363.155 200.692C363.155 200.692 359.793 174.206 332.095 173.243C310.301 172.486 301.034 186.245 301.034 186.245H295.256V173.243H260.584V180.467H250.471L231.69 163.131L251.916 140.016H327.038V134.237H740.213V116.901H327.038V112.567H251.916L224.467 85.1187V36H201.352C201.352 36 184.016 36.5217 184.016 60.5593C184.016 84.597 201.352 85.1187 201.352 85.1187H191.24L176.793 79.34H104.56H55.4411L46.7731 85.1187H7.7671V92.342H0.543762L7.7671 142.905L46.7731 163.131H88.6684Z" fill="#35293B"/>
<path d="M43 2C43 0.89543 43.8954 0 45 0V0C46.1046 0 47 0.895431 47 2V102H43V2Z" fill="#35293B"/>
<rect x="47" y="8" width="68" height="24" fill="#005BBB"/>
<rect x="47" y="32" width="68" height="24" fill="#FFD500"/>
</svg>
